<svg width="335" height="27" viewBox="0 0 335 27" fill="none" xmlns="http://www.w3.org/2000/svg">
<path d="M12.872 26.476C10.424 26.476 8.248 26.136 6.344 25.456C4.44 24.7533 2.93267 23.7447 1.822 22.43C0.734 21.1153 0.19 19.5287 0.19 17.67C0.19 15.7207 0.734 14.0887 1.822 12.774C2.93267 11.4593 4.44 10.4733 6.344 9.816C8.248 9.15867 10.424 8.83 12.872 8.83C14.912 8.83 16.748 9.04533 18.38 9.476C20.012 9.884 21.406 10.4847 22.562 11.278C23.718 12.0487 24.602 12.978 25.214 14.066C25.826 15.154 26.132 16.3553 26.132 17.67C26.132 18.9847 25.826 20.186 25.214 21.274C24.602 22.3393 23.718 23.2687 22.562 24.062C21.406 24.8327 20.012 25.4333 18.38 25.864C16.748 26.272 14.912 26.476 12.872 26.476ZM15.932 21.308C17.6547 21.308 19.23 21.206 20.658 21.002C22.1087 20.7753 23.2647 20.4013 24.126 19.88C25.01 19.3587 25.452 18.622 25.452 17.67C25.452 16.6953 25.01 15.9473 24.126 15.426C23.2647 14.9047 22.1087 14.542 20.658 14.338C19.23 14.134 17.6547 14.032 15.932 14.032C13.62 14.032 11.8293 14.338 10.56 14.95C9.29067 15.5393 8.656 16.446 8.656 17.67C8.656 18.4633 8.93933 19.132 9.506 19.676C10.0727 20.22 10.9 20.628 11.988 20.9C13.076 21.172 14.3907 21.308 15.932 21.308ZM25.452 2.54H33.612V26H25.928C25.8373 25.4787 25.7353 24.64 25.622 23.484C25.5087 22.3053 25.452 20.9907 25.452 19.54V2.54ZM60.8343 20.016H68.8583C68.6543 21.3307 67.997 22.4753 66.8863 23.45C65.7983 24.4247 64.2003 25.184 62.0923 25.728C60.007 26.2493 57.3436 26.51 54.1023 26.51C50.6796 26.51 47.7216 26.238 45.2283 25.694C42.7576 25.15 40.8536 24.232 39.5163 22.94C38.179 21.648 37.5103 19.9027 37.5103 17.704C37.5103 15.528 38.1563 13.794 39.4483 12.502C40.763 11.1873 42.6556 10.2467 45.1263 9.68C47.597 9.11333 50.589 8.83 54.1023 8.83C57.5476 8.83 60.3696 9.136 62.5683 9.748C64.767 10.36 66.3876 11.3573 67.4303 12.74C68.473 14.1 68.9716 15.9473 68.9263 18.282H45.8063C45.9196 18.8713 46.237 19.4153 46.7583 19.914C47.3023 20.4127 48.1296 20.8207 49.2403 21.138C50.3736 21.4327 51.881 21.58 53.7623 21.58C55.7116 21.58 57.3096 21.444 58.5563 21.172C59.8256 20.9 60.585 20.5147 60.8343 20.016ZM53.7623 13.76C51.3596 13.76 49.5236 14.0207 48.2543 14.542C47.0076 15.0633 46.271 15.5847 46.0443 16.106H61.0043C60.8456 15.5167 60.211 14.984 59.1003 14.508C57.9896 14.0093 56.2103 13.76 53.7623 13.76ZM71.6511 9.34H79.8111V26H71.6511V9.34ZM92.0511 8.83C93.3884 8.83 94.6804 8.97733 95.9271 9.272C97.1738 9.544 98.2844 10.02 99.2591 10.7C100.256 11.38 101.05 12.3093 101.639 13.488C102.228 14.6667 102.523 16.1513 102.523 17.942V26H94.3631V18.962C94.3631 17.262 93.9211 16.0607 93.0371 15.358C92.1531 14.6327 90.5551 14.27 88.2431 14.27C87.0191 14.27 85.8291 14.406 84.6731 14.678C83.5398 14.95 82.5198 15.2787 81.6131 15.664C80.7064 16.0267 79.9924 16.3893 79.4711 16.752L79.4031 15.46C79.4938 15.052 79.7998 14.4853 80.3211 13.76C80.8651 13.012 81.6471 12.264 82.6671 11.516C83.6871 10.768 84.9678 10.1333 86.5091 9.612C88.0731 9.09067 89.9204 8.83 92.0511 8.83ZM114.355 8.83C115.692 8.83 116.984 8.97733 118.231 9.272C119.478 9.544 120.588 10.02 121.563 10.7C122.56 11.38 123.354 12.3093 123.943 13.488C124.532 14.6667 124.827 16.1513 124.827 17.942V26H116.667V18.962C116.667 17.262 116.225 16.0607 115.341 15.358C114.457 14.6327 112.859 14.27 110.547 14.27C109.323 14.27 108.133 14.406 106.977 14.678C105.844 14.95 104.824 15.2787 103.917 15.664C103.01 16.0267 102.296 16.3893 101.775 16.752L101.707 15.12C101.798 14.78 102.138 14.27 102.727 13.59C103.316 12.91 104.144 12.2073 105.209 11.482C106.297 10.7567 107.6 10.1333 109.119 9.612C110.66 9.09067 112.406 8.83 114.355 8.83ZM143.707 26.51C140.103 26.51 137.1 26.2153 134.697 25.626C132.317 25.0367 130.527 24.096 129.325 22.804C128.147 21.512 127.557 19.812 127.557 17.704C127.557 15.596 128.147 13.896 129.325 12.604C130.527 11.2893 132.317 10.3373 134.697 9.748C137.1 9.136 140.103 8.83 143.707 8.83C147.289 8.83 150.258 9.136 152.615 9.748C154.995 10.3373 156.775 11.2893 157.953 12.604C159.132 13.896 159.721 15.596 159.721 17.704C159.721 19.812 159.132 21.512 157.953 22.804C156.775 24.096 154.995 25.0367 152.615 25.626C150.258 26.2153 147.289 26.51 143.707 26.51ZM143.707 21.58C145.385 21.58 146.79 21.444 147.923 21.172C149.057 20.8773 149.918 20.4467 150.507 19.88C151.097 19.2907 151.391 18.5653 151.391 17.704C151.391 16.8427 151.097 16.1173 150.507 15.528C149.941 14.9387 149.091 14.4967 147.957 14.202C146.824 13.9073 145.407 13.76 143.707 13.76C142.03 13.76 140.602 13.9073 139.423 14.202C138.267 14.4967 137.383 14.9387 136.771 15.528C136.182 16.0947 135.887 16.82 135.887 17.704C135.887 18.5653 136.182 19.2907 136.771 19.88C137.361 20.4467 138.233 20.8773 139.389 21.172C140.568 21.444 142.007 21.58 143.707 21.58ZM161.578 9.34H181.57V14.44H161.578V9.34ZM167.494 4.24H175.654V26H167.494V4.24ZM192.754 0.601999V5.702H184.118V0.601999H192.754ZM184.356 9.34H192.516V26H184.356V9.34ZM211.973 22.94L208.097 22.872L216.665 9.34H225.675L213.809 26H206.125L194.803 9.34H203.779L211.973 22.94ZM238.354 26.476C235.906 26.476 233.73 26.136 231.826 25.456C229.922 24.7533 228.415 23.7447 227.304 22.43C226.216 21.1153 225.672 19.5287 225.672 17.67C225.672 15.7207 226.216 14.0887 227.304 12.774C228.415 11.4593 229.922 10.4733 231.826 9.816C233.73 9.15867 235.906 8.83 238.354 8.83C241.074 8.83 243.42 9.204 245.392 9.952C247.387 10.6773 248.917 11.7087 249.982 13.046C251.07 14.3607 251.614 15.902 251.614 17.67C251.614 18.9847 251.308 20.186 250.696 21.274C250.084 22.3393 249.2 23.2687 248.044 24.062C246.888 24.8327 245.494 25.4333 243.862 25.864C242.23 26.272 240.394 26.476 238.354 26.476ZM241.414 21.308C243.137 21.308 244.712 21.206 246.14 21.002C247.591 20.7753 248.747 20.4013 249.608 19.88C250.492 19.3587 250.934 18.622 250.934 17.67C250.934 16.6953 250.492 15.9473 249.608 15.426C248.747 14.9047 247.591 14.542 246.14 14.338C244.712 14.134 243.137 14.032 241.414 14.032C239.102 14.032 237.312 14.338 236.042 14.95C234.773 15.5393 234.138 16.446 234.138 17.67C234.138 18.4633 234.422 19.132 234.988 19.676C235.555 20.22 236.382 20.628 237.47 20.9C238.558 21.172 239.873 21.308 241.414 21.308ZM250.934 9.34H259.094V26H251.41C251.41 26 251.365 25.7393 251.274 25.218C251.206 24.6967 251.127 23.9487 251.036 22.974C250.968 21.9993 250.934 20.8547 250.934 19.54V9.34ZM261.321 9.34H281.313V14.44H261.321V9.34ZM267.237 4.24H275.397V26H267.237V4.24ZM299.33 26.51C295.726 26.51 292.723 26.2153 290.32 25.626C287.94 25.0367 286.15 24.096 284.948 22.804C283.77 21.512 283.18 19.812 283.18 17.704C283.18 15.596 283.77 13.896 284.948 12.604C286.15 11.2893 287.94 10.3373 290.32 9.748C292.723 9.136 295.726 8.83 299.33 8.83C302.912 8.83 305.881 9.136 308.238 9.748C310.618 10.3373 312.398 11.2893 313.576 12.604C314.755 13.896 315.344 15.596 315.344 17.704C315.344 19.812 314.755 21.512 313.576 22.804C312.398 24.096 310.618 25.0367 308.238 25.626C305.881 26.2153 302.912 26.51 299.33 26.51ZM299.33 21.58C301.008 21.58 302.413 21.444 303.546 21.172C304.68 20.8773 305.541 20.4467 306.13 19.88C306.72 19.2907 307.014 18.5653 307.014 17.704C307.014 16.8427 306.72 16.1173 306.13 15.528C305.564 14.9387 304.714 14.4967 303.58 14.202C302.447 13.9073 301.03 13.76 299.33 13.76C297.653 13.76 296.225 13.9073 295.046 14.202C293.89 14.4967 293.006 14.9387 292.394 15.528C291.805 16.0947 291.51 16.82 291.51 17.704C291.51 18.5653 291.805 19.2907 292.394 19.88C292.984 20.4467 293.856 20.8773 295.012 21.172C296.191 21.444 297.63 21.58 299.33 21.58ZM318.051 9.34H326.211V26H318.051V9.34ZM334.983 15.63C333.51 15.63 332.161 15.766 330.937 16.038C329.713 16.31 328.671 16.6387 327.809 17.024C326.948 17.3867 326.302 17.7493 325.871 18.112L325.803 16.48C325.871 16.004 326.053 15.4487 326.347 14.814C326.642 14.1567 327.039 13.488 327.537 12.808C328.036 12.1053 328.648 11.4593 329.373 10.87C330.099 10.258 330.926 9.77067 331.855 9.408C332.807 9.02267 333.85 8.83 334.983 8.83V15.63Z" fill="#56626E"/>
</svg>
